# xmcd CD database file
#
# Track frame offsets:
#	150
#	12176
#	21918
#	37338
#	50660
#	61020
#	73641
#	92199
#	114938
#	139810
#	158830
#	175500
#	197748
#	213395
#	228257
#	240010
#	259808
#	274566
#
# Disc length: 3982 seconds
#
# Revision: 0
# Processed by: cddbd v1.5.2PL0 Copyright (c) Steve Scherf et al.
# Submitted via: CDex 1.70beta2
#
DISCID=ef0f8c12
DTITLE=Various Artist - Soul Jazz (Jazz Club)
DYEAR=2006
DGENRE=Jazz
TTITLE0=Evil Ways (Album Version) von Willie Bobo
TTITLE1=Crickets Sing For Anamaria von Marcos Valle
TTITLE2=The Cat von Jimmy Smith
TTITLE3=Why And How von Mark Murphy
TTITLE4=I'm Gonna Leave You (Album Version) von Nina Simone
TTITLE5=Watermelon Man (1963/Live At The Trident Club, Sausalito, CA) von Jon Hendricks
TTITLE6=Big Schlepp von Dave Pike Set
TTITLE7=Cold Sweat von James Brown
TTITLE8=Jive Samba von Peter Herbolzheimer Rhythm Combination and Brass
TTITLE9=Brother Where Are You? (1964/Live At The Cellar Door, Washington, D.C./Edited) von Oscar Brown, Jr.
TTITLE10=Terra Samba von Fritz Pauer Trio 
TTITLE11=Latin Kaleidoscope: Un Grão De Areia von The Kenny Clarke-Francy Boland Big Band
TTITLE12=Cubano Chant von Wolfgang Dauner
TTITLE13=Sunshine Of Your Love (Album Version) von Ella Fitzgerald
TTITLE14=Whatever Lola Wants (Lola Gets) von Sarah Vaughan and Hugo Peretti Orchestra
TTITLE15=For Mods Only von Chico Hamilton
TTITLE16=The Fakir von Cal Tjader
TTITLE17=Love And Happiness von Monty Alexander
EXTD=YEAR: 2006
EXTT0=
EXTT1=
EXTT2=
EXTT3=
EXTT4=
EXTT5=
EXTT6=
EXTT7=
EXTT8=
EXTT9=
EXTT10=
EXTT11=
EXTT12=
EXTT13=
EXTT14=
EXTT15=
EXTT16=
EXTT17=
PLAYORDER=
